<!DOCTYPE svg  PUBLIC '-//W3C//DTD SVG 1.1//EN'  'http://www.w3.org/Graphics/SVG/1.1/DTD/svg11.dtd'><svg version="1.1" viewBox="0 0 1254 1254" xmlns="http://www.w3.org/2000/svg"><g fill="none" stroke-width="2"><g stroke="#012278"><path d="m884 244q-17-0.9-35-1.8c-3.3-0.18-6.6 0.07-9.8 0.62q-1.9 0.32-7.4 0.39-11 0.15-21 0.92"/><path d="m886 244q4.9 1.6 9.9 1.8"/><path d="m897 246q8.1 2.4 16 4.8 0.49 0.15 1.5-0.03"/><path d="m915 251q1.2 1.1 3.1 1"/><path d="m918 252q0 0.33 0.62 0.39"/><path d="m920 253q6.8 3.8 13 7.9c11 6.9 19 20 22 32q1.4 5.5 2.3 12 0.08 0.6 0.38 0.54"/><path d="m958 306 0.14 1.8"/><path d="m958 308-0.12 20"/><path d="m958 329-2.6 15"/><path d="m955 344q-0.99 2.7-2.8 9.7-2 7.7-9.5 27-3.8 10-17 36-1.9 3.6-3.7 6.4c-3.4 5.1-6.1 11-9.2 16q-15 25-32 48-2.4 3.2-6.9 9.3-5.6 7.7-6.9 9.3-10 12-14 17c-4.2 5.6-11 13-17 20"/><path d="m836 544q-0.32 0.19-0.43 0.52"/><path d="m835 545-6.6 6.7"/></g><path d="m828 552q-9.5 0.66-18-2.5-7.4-2.7-8.6-3c-9.4-2.2-19-1-28-1.1" stroke="#0035be"/><g stroke="#012278"><path d="m774 546q12-16 23-32 19-28 35-59c3.8-7.6 7.8-17 12-25q0.58-1.2 1.1-3.9"/><path d="m844 426q0.8-1.4 1.4-3c3.8-9.9 7-20 8.8-31q0.63-3.6 1.7-11 1-6.6 0.61-17-0.06-1.5-0.42-2.8"/><path d="m856 360q0-5-1.9-9.8"/><path d="m854 350q-0.73-4.1-1.6-6.8-0.1-0.3-0.57-0.48"/><path d="m852 342q-0.93-4.1-3.5-7.2"/><path d="m848 334q-0.68-2.4-2.9-3.9"/><path d="m843 328q0-0.16-0.01-0.3a0.86 0.83-67 0 0-0.13-0.33q-4.5-6.1-11-9.6"/><path d="m829 317q-8.5-5.8-18-8.2-1.3-0.33-10-1.9-5.4-0.93-11-1.1-17-0.57-33 0.3-7.6 0.41-15 2"/><path d="m742 308q-2.8-0.32-6.9 0.37-10 1.7-20 3.7-1.2 0.24-2.2 0.86"/><path d="m712 313-28 7"/><path d="m684 320q-7.2 1.6-14 3.6-0.22 0.07-4.6 1.7-2.1 0.77-4.7 1.3-0.77 0.14-0.71 0.65"/><path d="m660 327q-3.7 0.68-8.2 2.3-0.83 0.3-0.74 0.82"/><path d="m650 330q-1.5 0.04-2.3 0.67"/><path d="m648 331-11 4"/><path d="m636 335q-4.2 0.73-7.9 2.7"/><path d="m628 338q-6.6 1.8-13 5"/><path d="m616 343-6.8 2.9"/><path d="m609 346-7 3.1"/><path d="m599 350-5.6 2.7"/><path d="m593 353-9.7 4.8"/><path d="m583 358q-1 0.01-1.5 0.81"/><path d="m582 359q-1.4 0.07-2 1"/><path d="m579 360-5.6 2.8"/><path d="m573 363q-2.2 0.37-3.7 1.9"/><path d="m569 365q-0.62 0.04-0.84 0.56"/><path d="m567 367-10 5.5"/><path d="m556 372q-1.6 0.5-2.3 1.6"/><path d="m553 374q-1.4 0-1.4 0.88"/><path d="m551 376q-0.58 0.04-0.83 0.54"/><path d="m548 377q-0.85 0.08-1.3 0.79"/><path d="m543 380q-0.97 0.25-1.5 1"/><path d="m540 382q-1.1 0.15-1.7 1"/><path d="m538 383q-1.2 0.09-1.4 0.76"/><path d="m536 384q-2.1 0.5-3.1 2"/><path d="m533 386-5.5 3.5"/><path d="m527 390q-1.7 0.64-2.6 1.7"/><path d="m524 392q-2 0.4-2.8 2"/><path d="m521 394q-1.6 0.21-2.8 1.6"/><path d="m518 396c-2.1 1.3-4.8 2.7-6.4 4q-1.1 0.94-11 8-2.7 1.9-8.7 7.1c-6.5 5.7-14 12-20 17q-2.4 2.2-14 14c-5.4 5.4-11 12-16 18-5.7 6.5-8.9 11-15 20q-4.7 6.4-18 28-2 3.3-4.6 8.5c-1.8 3.6-5.2 8.9-6.2 14l-2 5-1.2 2.3-3.1 6.1"/></g><path d="m392 548q-4.2-0.86-6.7-0.86-8.6 0-17-0.25" stroke="#0035be"/><g stroke="#012278"><path d="m368 546q4-11 8.8-21 6.5-14 8.7-18 3-5.6 5-8.6 1.5-2.3 5-8.6 4.4-7.9 12-18 6.2-9 7.5-11 2-2.9 8.1-10 4.8-5.8 9-12"/><path d="m432 440 3.9-4.9"/><path d="m436 435 7.6-8.8"/><path d="m444 426q0.75-0.32 1.2-1.2"/><path d="m445 425c4.1-3.3 7.5-8.1 11-11q15-14 23-22 20-18 44-36 5.1-3.6 7.6-5.8"/><path d="m531 349q0.84-0.21 1.6-0.72 13-8.8 26-17 0.55-0.33 0.26-0.76"/><path d="m560 331q0.53 0.25 1.2-0.13 8-4.6 16-9.4 0.22-0.14 0.11-0.38"/><path d="m577 321q0.94-0.04 1.4-0.32 8.5-4.8 17-9.4 0.61-0.33 0.97-1"/><path d="m597 310 9.2-4.5"/><path d="m607 305 12-5.8"/><path d="m619 298q0.69 0.17 1.2-0.47"/><path d="m621 298q0.88 0 1.5-0.76"/><path d="m623 297q2.7-0.27 4.2-1.9"/><path d="m627 295q3.5-0.78 6.5-2.8"/><path d="m633 292q0.32 0.17 0.73 0.02 4.2-1.6 8.3-3.9"/><path d="m643 288q3.4-0.87 6.3-2.7"/><path d="m650 285q8.7-2.7 17-6.8"/><path d="m668 277q0.72-0.02 1.2-0.47"/><path d="m669 277q1.8-0.08 3-0.97"/><path d="m672 276 9.1-3"/><path d="m681 273q3.5-0.59 6.8-2.1a0.2 0.04-11 0 1 0.05-0.02l28-9.2"/><path d="m716 262q1.1 0.2 2.3-0.71"/><path d="m720 261q1.2 0.22 2.9-0.7"/><path d="m723 260q2.4 0.33 4-0.84"/><path d="m727 259q5.9-0.51 11-2.9"/><path d="m740 256q4.5 0.2 8.6-1.9"/><path d="m748 254 10-2"/><path d="m759 252q1.7-0.05 3.4-0.84"/><path d="m763 251q4-0.03 7.7-0.95 5.2-1.3 5.6-1.3 2.8-0.48 5.7-0.72 4.3-0.37 8.3-1.9"/><path d="m793 246q6.4 0.03 12-1.9"/></g><path d="m774 546-5 6.2" stroke="#011448"/><path d="m769 552-0.77 1.4a0.9 0.89 15 0 0 0.77 1.3q8.2 0.15 18 0.09 9-0.05 16 2.2a0.15 0.14 15 0 1 0.1 0.17 0.12 0.12 0 0 1-0.15 0.09q-8.5-1.8-18-2c-5.4-0.12-12 0.38-18-0.57a0.21 0.21 0 0 0-0.2 0.34q2.7 3.4 7.1 3.6c11 0.26 21 1.2 30 2.3q2.7 0.3 3.9 1.4 4.3 3.6 9 0.69a0.29 0.29 0 0 0-0.08-0.52l-5.3-1.4" stroke="#01081c"/><path d="m813 561 5.8 1.2a1 1-62 0 0 0.97-0.31l3-3.2a1.2 1.1-80 0 1 0.4-0.29l0.61-0.28" stroke="#011448"/><path d="m790 603 6.7-17" stroke="#808080"/><path d="m797 586 8.4-21a0.89 0.88 11 0 0-0.83-1.2h-46a1.9 1.9 11 0 0-1.8 1.2l-50 122" stroke="#808080"/><g stroke="#011448"><path d="m368 546-2.3 5.7a0.52 0.52 0 0 0 0.31 0.69q3.1 1.1 4.6 1.2 11 1.1 17 2.2a0.69 0.69 0 0 0 0.76-0.42l3.4-8.3"/><path d="m828 552-4.1 5"/><path d="m824 557q-0.35 0.14-0.42 0.54"/></g><path d="m813 561q-3.7-1.8-7.4-3.6c-4.3-2.1-7.6-2.7-12-3q-7.6-0.57-9.3-0.55-11 0.13-15-0.39a0.09 0.08-83 0 1-0.07-0.1v-0.01a0.17 0.17 0 0 1 0.19-0.16q10 1 11-0.08l0.01-0.01a0.04 0.03 75 0 0-0.03-0.02q-5.9 0.56-12-1.1" stroke="#001b63"/><g stroke="#808080"><path d="m790 604-21 51"/><path d="m769 655-4.9 12"/><path d="m764 666q-8 19-15 38-0.77 2-3 2-23-0.02-45-0.03a0.96 0.96 0 0 1-0.89-1.3l1.9-4.8"/><path d="m701 700 2-5"/><path d="m703 695 2.9-7.1"/></g><g stroke="#012278"><path d="m760 388q-3.2-3.7-7.7-5.7c-2.5-1.1-5.5-1.3-8-2.1q-3.6-1.2-6-1.4-12-0.97-23 0.72-15 2.1-32 7.4c-11 3.3-19 6.7-30 11q-3.3 1.2-16 7.6-4.1 2-8.7 4.1-5.1 2.3-11 6.1a17 16-73 0 1-2.8 1.5q-5.5 2.3-11 6.1c-4.6 3.2-11 6-14 8.7q-6 4.7-13 8.2"/><path d="m760 388q4.6 8 5.3 13 0.95 7.4 0.01 14c-0.65 4.4-1.7 9.8-3.2 14q-6.9 20-18 37c-7.4 12-10 17-17 26q-7.3 9.8-8.3 11-8 10-26 31"/><path d="m692 537-10 10"/></g><path d="m681 547q-3.5-0.11-17-1.3-9.1-0.8-25 0.82-4.2 0.43-10-0.29a0.27 0.26-64 0 1-0.15-0.45q8.3-8.4 16-17 1.5-1.6 2.5-3.5" stroke="#002993"/><g stroke="#012278"><path d="m648 525 11-14"/><path d="m659 511 8.8-13"/><path d="m668 498q1.1-0.89 1.5-2.2"/><path d="m670 495q5.7-7 8.5-16 0.77-0.67 0.88-1.7"/><path d="m679 477q0.68-1.2 0.05-1"/><path d="m680 475q1.2-2.4 1.6-5.2"/><path d="m682 469c1.7-5.5 2.8-12-0.07-18"/><path d="m681 449q-0.24-1.4-0.95-1.4"/><path d="m679 446q-3-3.8-8-5.7-7.5-2.7-16-1.8c-6.9 0.74-13 0.82-20 2.6q-14 3.8-23 7.7c-5.7 2.3-11 3.4-16 6.3q-2.4 1.4-9.9 4.8-9.3 4.2-18 10"/><path d="m568 470q-4.6 1.8-7.4 3.7-13 8.6-24 17-7.6 5.7-18 14-1.3 1.1-1.5 1.3-16 14-28 29-6.1 7.2-11 15"/></g><path d="m478 550q-0.08 0.2-0.17 0.39-0.11 0.2-0.03 0.35 0.11 0.19 0.31 0.34" stroke="#0035be"/><g stroke="#012278"><path d="m477 553q-1.1-0.16-1.8 0.59a0.41 0.41 0 0 1-0.69-0.22l-0.09-0.55"/><path d="m478 548q2.6-3.6 6.1-11 2.8-5.9 11-18 0.36-0.54 0.35-1.2"/><path d="m495 518q0.42 0.03 0.53-0.67"/><path d="m496 517 4.1-5.8"/><path d="m501 509 6.6-8.2"/><path d="m509 500 3.6-4.2"/><path d="m512 495q0.43-0.12 0.5-0.53"/><path d="m513 495 22-23"/><path d="m537 471q1.9-1.1 3.1-3"/><path d="m540 468q0.76-0.17 1-0.93"/><path d="m541 467q2.2-1.1 3.3-2.8"/><path d="m545 464q3.7-2 6.3-5.2"/><path d="m551 459q0.63-0.25 0.83-0.83"/><path d="m553 456q1.8-0.99 2.8-2.2"/><path d="m558 453q1.2-0.15 1.6-1.1"/><path d="m560 452q4.2-2 7.7-5.6"/><path d="m568 446q2.2-0.82 3.3-1.8 2.4-2.2 5-4.2"/></g></svg>